<svg aria-hidden="true" style="position: absolute; width: 0; height: 0; overflow: hidden;" version="1.1" xmlns="http://www.w3.org/2000/svg" xmlns:xlink="http://www.w3.org/1999/xlink">
<defs>
<symbol id="icon-M-social" viewBox="0 0 39 32">
<path d="M38.857 4.815h-1.492c-0.554 0-1.338 0.787-1.338 1.29v18.256c0 0.504 0.784 1.192 1.338 1.192h1.492v4.334h-13.523v-4.334h2.83v-19.191h-0.139l-6.609 23.524h-5.117l-6.524-23.524h-0.165v19.191h2.83v4.334h-11.321v-4.334h1.45c0.597 0 1.381-0.687 1.381-1.192v-18.256c0-0.504-0.784-1.29-1.381-1.29h-1.45v-4.333h14.157l4.648 17.024h0.128l4.691-17.024h14.114v4.333z"></path>
</symbol>
<symbol id="icon-twitter" viewBox="0 0 41 32">
<path d="M38.932 4.207c-1.389 0.634-2.88 1.060-4.446 1.254 1.598-0.985 2.826-2.544 3.403-4.401-1.496 0.912-3.153 1.574-4.917 1.93-1.412-1.545-3.424-2.508-5.651-2.508-4.275 0-7.742 3.562-7.742 7.953 0 0.624 0.068 1.231 0.2 1.813-6.435-0.333-12.141-3.501-15.959-8.311-0.666 1.175-1.048 2.54-1.048 3.998 0 2.759 1.367 5.193 3.444 6.621-1.268-0.042-2.462-0.4-3.506-0.996v0.1c0 3.856 2.671 7.069 6.209 7.8-0.649 0.182-1.333 0.279-2.036 0.279-0.499 0-0.985-0.048-1.456-0.142 0.985 3.161 3.845 5.46 7.232 5.524-2.65 2.132-5.988 3.404-9.617 3.404-0.625 0-1.24-0.036-1.846-0.111 3.426 2.257 7.496 3.574 11.868 3.574 14.24 0 22.028-12.121 22.028-22.63 0-0.345-0.008-0.688-0.022-1.030 1.513-1.121 2.826-2.523 3.864-4.119z"></path>
</symbol>
<symbol id="icon-telegram" viewBox="0 0 37 32">
<path d="M14.325 29.596c-1.078 0-0.895-0.389-1.266-1.371l-3.169-9.977 24.395-13.843z"></path>
<path d="M14.326 29.596c0.832 0 1.199-0.364 1.663-0.796l4.435-4.125-5.533-3.191z"></path>
<path d="M14.891 21.484l13.406 9.474c1.53 0.807 2.634 0.389 3.015-1.359l5.457-24.597c0.559-2.143-0.854-3.114-2.317-2.479l-32.043 11.818c-2.187 0.839-2.175 2.006-0.399 2.526l8.223 2.455 19.037-11.488c0.899-0.521 1.724-0.241 1.047 0.334z"></path>
</symbol>
<symbol id="icon-facebook" viewBox="0 0 17 32">
<path d="M10.647 32v-14.597h4.836l0.724-5.689h-5.56v-3.632c0-1.647 0.451-2.769 2.783-2.769l2.973-0.001v-5.088c-0.514-0.069-2.279-0.224-4.332-0.224-4.287 0-7.221 2.651-7.221 7.519v4.195h-4.848v5.689h4.848v14.597h5.798z"></path>

</symbol>
<symbol id="icon-person" viewBox="0 0 18 18" >
<path d="M9 9C10.6575 9 12 7.6575 12 6C12 4.3425 10.6575 3 9 3C7.3425 3 6 4.3425 6 6C6 7.6575 7.3425 9 9 9ZM9 10.5C6.9975 10.5 3 11.505 3 13.5V14.25C3 14.6625 3.3375 15 3.75 15H14.25C14.6625 15 15 14.6625 15 14.25V13.5C15 11.505 11.0025 10.5 9 10.5Z" />

</symbol>

<symbol id="icon-tick" viewBox="0 0 40 32">
<path d="M33.782 1.020c0.691-0.662 1.611-1.027 2.565-1.020s1.869 0.387 2.55 1.059c0.681 0.672 1.076 1.584 1.101 2.543s-0.321 1.891-0.966 2.598l-19.578 24.617c-0.337 0.365-0.743 0.657-1.195 0.86s-0.939 0.312-1.434 0.322c-0.495 0.009-0.986-0.082-1.445-0.268s-0.876-0.463-1.226-0.815l-12.984-13.054c-0.362-0.339-0.652-0.747-0.853-1.201s-0.309-0.944-0.318-1.441 0.082-0.99 0.267-1.451c0.185-0.461 0.461-0.879 0.81-1.231s0.766-0.628 1.224-0.814 0.949-0.277 1.443-0.269c0.494 0.009 0.981 0.118 1.433 0.32s0.858 0.494 1.195 0.857l10.275 10.325 17.042-21.83c0.031-0.038 0.063-0.074 0.098-0.109h-0.005z"></path>
</symbol>

<symbol id="icon-bitbucket" viewBox="0 0 117 29">
<path fill-rule="evenodd" clip-rule="evenodd" d="M14.9321 23.2004C14.7617 23.2004 14.677 23.2835 14.677 23.2835C14.677 23.2835 12.5431 24.9461 8.7024 24.9461C4.86351 24.9452 2.73231 23.2826 2.73231 23.2826C2.73231 23.2826 2.56199 23.2004 2.47729 23.2004C2.30607 23.2004 2.13484 23.2835 2.13484 23.532V23.6142C2.47638 25.3547 2.73231 26.5972 2.73231 26.7626C2.98732 28.006 5.5484 29 8.61952 29C11.6915 29 14.2517 28.006 14.5076 26.7626C14.5076 26.5972 14.7627 25.3547 15.0996 23.6142V23.532C15.1816 23.3657 15.0996 23.2004 14.9266 23.2004H14.9321ZM32.2531 19.1411C33.3624 18.561 33.7895 17.7323 33.7895 16.488V14.7485C33.7895 12.2634 32.2531 11.0218 29.0107 11.0218H22.5261C22.271 11.0218 22.0998 11.1881 22.0998 11.4375V27.6743C22.0998 27.9237 22.2701 28.09 22.5261 28.09H29.5226C32.5946 28.09 34.3861 26.5981 34.3861 24.0308V22.2886C34.3861 20.7984 33.6183 19.639 32.2531 19.1402V19.1411ZM38.909 15.4949H36.2677C36.0127 15.4949 35.8397 15.6612 35.8397 15.9106V27.6743C35.8397 27.922 36.0127 28.09 36.2677 28.09H38.9181C39.1731 28.09 39.3461 27.922 39.3461 27.6743V15.9097C39.3461 15.6621 39.1731 15.494 38.9181 15.494L38.909 15.4949ZM102.481 15.2473C98.9013 15.2473 97.1071 16.9868 97.1071 20.2174V23.4489C97.1071 26.7634 98.9013 28.3376 102.654 28.3376C104.193 28.3376 105.814 28.09 107.18 27.5912C107.351 27.509 107.521 27.3436 107.435 27.0942L107.009 25.2724C107.009 25.1884 106.924 25.023 106.839 25.023C106.753 24.9399 106.584 24.9399 106.497 24.9399C105.304 25.2715 104.109 25.4378 103 25.4378C101.037 25.4378 100.696 24.8576 100.696 23.532V23.1163H107.266C107.521 23.1163 107.694 22.9518 107.694 22.7033V20.3837C107.608 16.9037 105.987 15.2455 102.489 15.2455L102.481 15.2473ZM55.6398 25.3555C54.9567 25.3555 54.4467 25.3555 53.9367 25.2715V18.8864C54.7053 18.5504 55.729 18.2232 56.4959 18.2232C57.5205 18.2232 57.9477 18.6388 57.9477 19.5497V23.2729C57.9477 24.6817 57.6061 25.3449 55.6434 25.3449L55.6398 25.3555ZM116.306 25.6032C116.306 25.52 116.224 25.3555 116.139 25.2715C116.054 25.1831 115.884 25.1831 115.798 25.1831C115.286 25.2627 114.86 25.3511 114.518 25.3511C113.835 25.3511 113.58 25.1035 113.58 24.4402V18.2232H116.139C116.394 18.2232 116.564 18.0551 116.564 17.8075V15.9061C116.564 15.6585 116.394 15.4905 116.139 15.4905H113.579V12.5102C113.579 12.3422 113.492 12.2581 113.406 12.1759C113.321 12.0928 113.151 12.0928 113.065 12.0928L110.421 12.4288C110.166 12.4288 109.993 12.6764 109.993 12.8418V15.4931H108.545C108.29 15.4931 108.116 15.6594 108.116 15.9088V17.8128C108.116 18.0604 108.29 18.2285 108.545 18.2285H109.993V24.8541C109.993 27.0915 111.189 28.2501 113.663 28.2501C114.346 28.2501 115.539 28.0865 116.308 27.8344C116.479 27.7548 116.65 27.5868 116.563 27.3392L116.308 25.6005L116.306 25.6032ZM48.8163 25.6032C48.8163 25.52 48.7316 25.3555 48.646 25.2715C48.5613 25.1831 48.391 25.1831 48.3054 25.1831C47.8773 25.2627 47.3673 25.3511 47.0257 25.3511C46.3427 25.3511 46.0876 25.1035 46.0876 24.4402V18.2232H48.6469C48.9019 18.2232 49.075 18.0551 49.075 17.8075V15.9061C49.075 15.6585 48.9019 15.4905 48.6469 15.4905H46.0849V12.5102C46.0849 12.3422 45.9993 12.2581 45.9137 12.1759C45.8281 12.0928 45.6587 12.0928 45.5722 12.0928L42.9291 12.4288C42.6741 12.4288 42.5038 12.6764 42.5038 12.8418V15.4931H41.0484C40.7933 15.4931 40.6203 15.6594 40.6203 15.9088V17.8128C40.6203 18.0604 40.7915 18.2285 41.0484 18.2285H42.4983V24.8541C42.4983 27.0915 43.6914 28.2501 46.166 28.2501C46.8491 28.2501 48.0422 28.0865 48.8072 27.8344C48.9803 27.7548 49.1487 27.5868 49.0622 27.3392L48.8072 25.6005L48.8163 25.6032ZM84.227 25.4378C84.227 25.3547 84.1414 25.1884 84.0567 25.1062C83.972 25.023 83.8017 25.023 83.7161 25.023C82.9483 25.1884 82.1805 25.2706 81.4118 25.2706C79.706 25.2706 79.2788 24.8576 79.2788 23.4489V20.0529C79.2788 18.6432 79.7907 18.2294 81.4118 18.2294C81.8399 18.2294 82.778 18.3125 83.7161 18.477C83.8008 18.477 83.9711 18.477 84.0567 18.3947C84.1405 18.3125 84.2261 18.2294 84.2261 18.0631L84.5695 16.075C84.5695 15.8274 84.4829 15.6612 84.227 15.578C83.2042 15.2464 82.0093 15.1624 81.3271 15.1624C77.3161 15.1624 75.694 16.5721 75.694 20.0529V23.3657C75.694 26.8457 77.3152 28.2545 81.3244 28.2545C82.2625 28.2545 83.3718 28.0891 84.2252 27.8388C84.4802 27.7575 84.5667 27.5912 84.5667 27.3436L84.2243 25.4378H84.227ZM25.6919 25.1062H28.8504C30.2166 25.1062 30.7266 24.7745 30.7266 23.6974V22.4504C30.7266 21.3715 30.3022 20.9558 29.1054 20.9558H27.9943C27.7393 20.9558 27.5662 20.7878 27.5662 20.5402V18.4805C27.5662 18.2311 27.7393 18.0649 27.9943 18.0649H28.5918C29.7011 18.0649 30.1273 17.651 30.1273 16.657V15.1642C30.1273 14.584 29.9616 14.0039 28.5972 14.0039H25.6837V25.1062H25.6919ZM73.6439 15.4949H71.0026C70.7476 15.4949 70.5746 15.6612 70.5746 15.9106V24.029C69.6365 24.526 68.2703 25.023 67.5053 25.023C66.9069 25.023 66.6492 24.7754 66.6492 24.1944V15.9159C66.6492 15.6682 66.4761 15.5002 66.2211 15.5002H63.5717C63.3167 15.5002 63.1454 15.6682 63.1454 15.9159V24.5322C63.1454 27.0173 64.1673 28.3438 66.2147 28.3438C67.5809 28.3438 69.5427 27.8459 71.1639 27.1004L71.3342 27.7637C71.4225 27.9299 71.5937 28.0962 71.7622 28.0962H73.7268C73.9818 28.0962 74.153 27.9282 74.153 27.6805V15.9097C74.0674 15.7416 73.898 15.494 73.6411 15.494L73.6439 15.4949ZM8.70604 9.53077C3.92541 9.53077 0 10.7715 0 12.3457C0 12.7613 1.0237 18.6424 1.45086 20.9629C1.62117 22.0392 4.43818 23.5311 8.70331 23.5311C12.9694 23.5311 15.6998 22.0454 15.9558 20.9665C16.3747 18.6494 17.4039 12.7684 17.4039 12.3528C17.3128 10.7786 13.4785 9.53696 8.69693 9.53696L8.70604 9.53077ZM8.70604 21.6262C7.1714 21.6262 5.97647 20.4659 5.97647 18.9749C5.97647 17.4803 7.16957 16.3218 8.70513 16.3218C10.2407 16.3218 11.4356 17.4803 11.4356 18.9749C11.4356 20.381 10.2407 21.6191 8.70513 21.6191L8.70604 21.6262ZM96.5934 27.3427L93.0943 21.7093L96.5096 16.1644C96.5943 15.9963 96.5943 15.8354 96.5096 15.7487C96.4231 15.5869 96.2528 15.5011 96.0816 15.5011H93.1808C93.0096 15.5011 92.8383 15.5869 92.7527 15.7487L89.5104 21.222V11.1049C89.5104 10.8555 89.3373 10.6893 89.0823 10.6893H86.4365C86.1815 10.6893 86.0085 10.8555 86.0085 11.1049V27.5894C86.0085 27.8371 86.1815 28.0051 86.4365 28.0051H89.0814C89.3364 28.0051 89.5095 27.8371 89.5095 27.5894V22.2037L92.9194 27.8371C93.005 28.0051 93.1744 28.0873 93.2609 28.0873H96.1608C96.4158 28.0873 96.5889 27.9211 96.5889 27.6717C96.6727 27.5072 96.6727 27.4241 96.5889 27.3409L96.5934 27.3427ZM100.604 20.3032V19.8875C100.604 18.6494 101.2 18.1542 102.48 18.1542C103.931 18.1542 104.187 18.8175 104.187 19.8964V20.312H100.604V20.3032ZM8.70695 17.5696C9.45925 17.5696 10.0731 18.1692 10.0731 18.8962C10.0731 19.6302 9.45925 20.2227 8.70695 20.2227C7.95466 20.2227 7.3408 19.6302 7.3408 18.8962C7.3408 18.1692 7.95284 17.5696 8.70695 17.5696ZM57.4276 15.2526C56.148 15.2526 54.7828 15.5869 53.9303 15.9159V11.1934C53.9303 10.9457 53.7591 10.7777 53.5022 10.7777H50.8573C50.6023 10.7777 50.4293 10.9457 50.4293 11.1934V27.5983C50.4293 27.8459 50.6023 28.0139 50.7708 28.0139C52.392 28.2616 54.3547 28.4296 55.464 28.4296C60.4131 28.4296 61.4368 26.3584 61.4368 23.2914V19.7275C61.4368 16.7472 60.0707 15.2526 57.4267 15.2526H57.4276ZM36.2668 13.758C36.0118 13.758 35.8388 13.5918 35.8388 13.3424V11.1049C35.8388 10.8555 36.0118 10.6893 36.2668 10.6893H38.9126C39.1694 10.6893 39.3407 10.9387 39.3407 11.1049V13.3406C39.3407 13.5882 39.1694 13.7563 38.9126 13.7563H36.2668V13.758ZM8.70513 13.1743C5.6322 13.1743 3.15855 12.6791 3.15855 12.0158C3.15855 11.3526 5.6322 10.8555 8.70513 10.8555C11.7762 10.8555 14.2517 11.3526 14.2517 12.0141C14.2517 12.6773 11.7762 13.1752 8.70513 13.1752V13.1743ZM42.92 6.63006C42.4938 6.63006 41.8107 6.4638 41.4691 6.21441C41.3872 6.21441 41.3872 6.13305 41.3872 6.04992L41.5575 5.38665L41.6395 5.3044H41.8098C42.2378 5.39284 42.6622 5.47243 43.0885 5.47243C43.6076 5.47243 43.6076 5.31325 43.6076 5.05678C43.6076 4.8976 43.6076 4.72957 42.838 4.56154C41.6449 4.31392 41.4719 3.9867 41.4719 3.07581C41.4719 2.24805 41.7287 1.66968 43.2661 1.66968C43.6914 1.66968 44.2889 1.74927 44.6322 1.83417C44.6322 1.83417 44.7142 1.9173 44.7142 1.99954L44.6295 2.74241L44.5448 2.82554H44.3736C44.2224 2.82554 44.0402 2.8105 43.8544 2.79282L43.6932 2.7769C43.5074 2.75921 43.3253 2.74152 43.1759 2.74152C42.6641 2.74152 42.6641 2.82377 42.6641 3.07227C42.6641 3.40833 42.6641 3.40833 43.2615 3.57282C44.5403 3.90534 44.7097 4.15385 44.7097 5.14699C44.7097 6.05257 44.3727 6.63095 42.9519 6.63979H42.9191L42.92 6.63006ZM39.1631 6.63006C38.653 6.63006 38.0547 6.4638 37.4572 6.21441C37.3716 6.21441 37.3716 6.13305 37.3716 6.04992L37.5428 5.38665L37.6339 5.3044H37.8069C38.2323 5.39284 38.6594 5.47243 39.0857 5.47243C39.5957 5.47243 39.5957 5.31325 39.5957 5.05678C39.5957 4.8976 39.5957 4.72957 38.8288 4.56154C37.6357 4.31392 37.4627 3.9867 37.4627 3.07581C37.4627 2.24805 37.7204 1.66968 39.2569 1.66968C39.6831 1.66968 40.2806 1.74927 40.623 1.83417C40.7068 1.83417 40.7924 1.9173 40.7924 1.99954L40.7086 2.74594L40.6249 2.82819H40.5338C40.3853 2.82819 40.2032 2.8105 40.0174 2.79282L39.8571 2.77778C39.6713 2.76009 39.4891 2.74594 39.3379 2.74594C38.8188 2.74594 38.8188 2.82554 38.8188 3.07316C38.8188 3.40656 38.8188 3.40656 39.4181 3.57194C40.6977 3.90534 40.8689 4.15385 40.9536 5.1461C40.9536 6.05257 40.6167 6.63183 39.1959 6.64068H39.1631V6.63006ZM54.6097 1.74131C54.097 1.74131 53.4139 1.90757 52.7317 2.15696L52.6461 1.90757C52.6461 1.82444 52.5614 1.82444 52.4758 1.82444H51.708C51.6224 1.82444 51.5368 1.90757 51.5368 1.98981V6.38244C51.5368 6.4638 51.6224 6.54693 51.708 6.54693H52.7317C52.8173 6.54693 52.902 6.4638 52.902 6.38156V3.3137C53.2436 3.14833 53.7554 2.98295 54.097 2.98295C54.352 2.98295 54.4385 3.0652 54.4385 3.3137V6.38244C54.4385 6.4638 54.5232 6.54693 54.6088 6.54693H55.6289C55.7108 6.54693 55.8019 6.4638 55.8019 6.38156V3.14568C55.7108 2.15165 55.3739 1.73689 54.6088 1.73689L54.6097 1.74131ZM46.4173 1.82444H45.3927C45.308 1.82444 45.2233 1.90757 45.2233 1.98981V6.38244C45.2233 6.4638 45.308 6.54693 45.3936 6.54693H46.4228C46.5121 6.54693 46.5959 6.4638 46.5959 6.38156V1.98716C46.5959 1.90492 46.5121 1.82179 46.4228 1.82179L46.4173 1.82444ZM32.4234 0.0026531H31.3997C31.315 0.0026531 31.2294 0.0848988 31.2294 0.167144V6.38244C31.2294 6.4638 31.3113 6.54693 31.3933 6.54693H32.4225C32.5044 6.54693 32.59 6.4638 32.59 6.38156V0.165376C32.59 0.0831301 32.5044 0 32.4197 0L32.4234 0.0026531ZM25.9387 0.250274C25.9387 0.167144 25.854 0.167144 25.7684 0.167144H24.2328C24.1472 0.167144 24.0616 0.250274 24.0616 0.250274L22.0943 6.29931V6.4638C22.0943 6.54693 22.1763 6.54693 22.261 6.54693H23.3722C23.4559 6.54693 23.5406 6.4638 23.5406 6.4638L24.9068 1.98893C24.9068 1.98893 24.9068 1.90757 25.0771 1.90757C25.1609 1.90757 25.2465 1.98981 25.2465 1.98981L25.8449 4.06187H24.9906C24.9032 4.06187 24.8175 4.14412 24.8175 4.14412L24.5625 4.96658V5.1293C24.5625 5.1293 24.6472 5.21243 24.7328 5.21243H26.181L26.5234 6.37271C26.5234 6.45407 26.609 6.45407 26.6946 6.45407H27.8058C27.8914 6.45407 27.8914 6.45407 27.9788 6.37006V6.20203L25.9387 0.24939V0.250274ZM34.7276 5.55291C35.1557 5.55291 35.4107 5.46978 35.581 5.38753V4.72426H34.7276C34.3861 4.72426 34.3014 4.88964 34.3014 5.13814C34.3014 5.46713 34.3852 5.55114 34.7203 5.55379H34.7276V5.55291ZM30.6319 5.55291C30.6319 5.46978 30.6319 5.46978 30.5472 5.46978H30.376C30.2057 5.55291 30.0344 5.55291 29.8641 5.55291C29.6091 5.55291 29.5226 5.46978 29.5226 5.22127V2.81846H30.4607C30.5472 2.81846 30.6319 2.73622 30.6319 2.65309V1.98981C30.6319 1.90757 30.5472 1.82444 30.4616 1.82444H29.5235V0.664156C29.5235 0.58191 29.5235 0.58191 29.4379 0.58191C29.4379 0.58191 29.3523 0.502318 29.2667 0.58191L28.2429 0.749939C28.1573 0.749939 28.0726 0.838375 28.0726 0.917968V1.90845H27.5608C27.4788 1.90845 27.3968 1.99512 27.3968 2.07648V2.82377C27.3968 2.90778 27.4843 2.9918 27.5699 2.9918H28.0827V5.47685C28.0827 6.30462 28.5089 6.71938 29.4488 6.71938C29.7038 6.71938 30.1301 6.63537 30.3869 6.55135C30.7275 6.38598 30.7275 6.38598 30.7275 6.30373L30.6419 5.55733L30.6319 5.55291ZM48.8063 5.55291C49.2344 5.55291 49.4894 5.46978 49.6597 5.38753V4.72426H48.8063C48.4657 4.72426 48.3801 4.88964 48.3801 5.13814C48.3801 5.46713 48.4638 5.55114 48.799 5.55379H48.8063V5.55291ZM34.9826 1.74131C34.4726 1.74131 33.8742 1.82444 33.448 1.90757C33.3624 1.90757 33.2777 1.98981 33.3624 2.07294L33.4535 2.73622C33.4535 2.81846 33.4535 2.81846 33.5427 2.81846H33.6274C34.0555 2.73622 34.4808 2.73622 34.8205 2.73622C35.5036 2.73622 35.6748 2.90159 35.6748 3.31547V3.73112H34.6457C33.621 3.73112 33.1948 4.14412 33.1948 5.0559C33.1948 5.96679 33.7067 6.4638 34.4744 6.4638C34.9845 6.4638 35.4125 6.29843 35.8388 6.13305V6.29843C35.8388 6.38156 35.9244 6.38156 36.0091 6.38156H36.7778C36.8597 6.38156 36.9508 6.29312 36.9508 6.21353V3.3933C36.9508 2.15077 36.4408 1.736 34.9908 1.736L34.9826 1.74131ZM48.9775 1.74131C48.4657 1.74131 47.8682 1.82444 47.4411 1.90757C47.35 1.90757 47.268 1.98981 47.35 2.07294L47.4319 2.73622C47.4319 2.81846 47.4319 2.81846 47.5166 2.81846H47.6023C48.0303 2.73622 48.4556 2.73622 48.7954 2.73622C49.4784 2.73622 49.6515 2.90159 49.6515 3.31547V3.73112H48.6351C47.6123 3.73112 47.1851 4.14412 47.1851 5.0559C47.1851 5.96679 47.697 6.4638 48.4657 6.4638C48.9775 6.4638 49.4038 6.29843 49.8318 6.13305L49.9156 6.29843C49.9156 6.38156 50.0012 6.38156 50.0868 6.38156H50.8546C50.9402 6.38156 51.0249 6.29312 51.0249 6.21353V3.3933C50.9402 2.15077 50.4275 1.736 48.9775 1.736V1.74131ZM46.4183 0.00176875H45.3927C45.308 0.00176875 45.2233 0.0848988 45.2233 0.167144V0.995792C45.2233 1.07538 45.308 1.15498 45.3936 1.15498H46.4228C46.5121 1.15498 46.5959 1.07008 46.5959 0.986948V0.165376C46.5959 0.0831301 46.5121 0 46.4228 0L46.4183 0.00176875Z"/>
</symbol>
<symbol id="icon-apple-watch" viewBox="0 0 150 32">
<path d="M19.472 8.345c-2.636-0.189-4.872 1.43-6.118 1.43-1.266 0-3.218-1.389-5.287-1.353-2.716 0.041-5.222 1.535-6.622 3.899-2.822 4.758-0.72 11.805 2.028 15.663 1.344 1.888 2.947 4.012 5.054 3.935 2.028-0.078 2.794-1.276 5.245-1.276 2.449 0 3.141 1.276 5.284 1.235 2.181-0.037 3.565-1.922 4.899-3.82 1.545-2.188 2.18-4.306 2.217-4.421-0.049-0.016-4.254-1.586-4.296-6.289-0.037-3.931 3.306-5.823 3.459-5.915-1.899-2.713-4.831-3.012-5.864-3.087zM124.811 23.702v0.416c0 4.106-3.093 7.779-9.299 7.779-6.189 0-9.868-3.773-9.868-10.367v-2.754c0-6.526 3.697-10.416 9.885-10.416 5.81 0 9.283 3.557 9.283 7.996v0.233h-4.66c0-2.253-1.478-4.256-4.59-4.256-3.318 0-4.986 2.153-4.986 6.443v2.754c0 4.34 1.652 6.361 5.020 6.361 3.353 0 4.556-1.837 4.556-4.189h4.66zM40.075 25.004h0.069l4.178-16.276h4.934l4.194 16.276h0.069l3.887-16.276h5.191l-6.516 22.787h-4.935l-4.315-15.576h-0.086l-4.316 15.576h-4.899l-6.533-22.787h5.192l3.884 16.276zM134.851 17.876h9.592v-9.148h4.883v22.787h-4.883v-9.716h-9.592v9.716h-4.864v-22.787h4.864v9.148zM102.497 8.728v3.939h-6.996v18.847h-4.849v-18.847h-6.98v-3.939h18.824zM76.211 8.728l7.547 22.786h-5.21l-1.673-5.743h-7.423l-1.7 5.743h-4.865l7.565-22.786h5.758zM75.858 22.267l-2.637-9.048h-0.051l-2.678 9.048h5.366zM17.739 5.92c-1.126 1.254-2.899 2.208-4.64 2.078-0.247-1.784 0.662-3.645 1.697-4.809 1.155-1.311 3.103-2.292 4.715-2.353 0.207 1.818-0.547 3.65-1.666 4.96l-0.052 0.062-0.054 0.061z"></path>
</symbol>
<symbol id="icon-facebook-company" viewBox="0 0 163 32">
<path d="M160.44 27.933c1.106 0 1.987 0.874 1.987 1.969 0 1.107-0.881 1.969-1.997 1.969-1.105 0-2.002-0.861-2.002-1.969 0-1.095 0.897-1.969 2.002-1.969h0.010zM32.523 31.607h-5.474l-0.233-1.341c-2.501 1.341-4.732 1.56-6.201 1.56-4.017 0-6.153-2.599-6.153-6.196 0-4.242 2.494-5.758 6.954-5.758h4.536v-0.915c0-2.165-0.253-2.8-3.7-2.8h-5.598l0.55-5.315h6.141c7.532 0 9.184 2.313 9.184 8.16v12.607h-0.005zM114.077 23.272c0 4.331-1.842 8.532-9.554 8.532-7.719 0-9.597-4.201-9.597-8.532v-4.184c0-4.331 1.875-8.532 9.595-8.532 7.73 0 9.58 4.201 9.58 8.534v4.183l-0.023-0.002zM135.107 23.272c0 4.331-1.845 8.532-9.554 8.532-7.722 0-9.6-4.201-9.6-8.532v-4.184c0-4.331 1.875-8.532 9.597-8.532 7.704 0 9.554 4.201 9.554 8.534v4.183l0.003-0.002zM160.43 28.243c-0.886 0-1.622 0.738-1.622 1.656 0 0.935 0.736 1.668 1.632 1.668 0.9 0.025 1.622-0.714 1.622-1.649 0-0.91-0.722-1.654-1.622-1.654h-0.010v-0.022zM10.079 31.565h-6.564v-15.405h-3.284v-5.315h3.282v-3.187c0-4.331 1.85-6.91 7.116-6.91h4.384v5.315h-2.737c-2.053 0-2.19 0.738-2.19 2.126l-0.025 2.658h4.967l-0.583 5.315h-4.382v15.405l0.015-0.002zM160.053 31.048h-0.36v-2.197c0.203-0.025 0.38-0.049 0.659-0.049 0.346 0 0.572 0.067 0.71 0.162 0.136 0.099 0.202 0.246 0.202 0.455 0 0.288-0.192 0.463-0.43 0.534v0.017c0.192 0.035 0.328 0.207 0.38 0.532 0.050 0.34 0.102 0.473 0.136 0.541h-0.38c-0.050-0.069-0.109-0.271-0.152-0.556-0.051-0.283-0.203-0.386-0.487-0.386h-0.253v0.945l-0.025 0.002zM160.053 29.83h0.26c0.296 0 0.548-0.106 0.548-0.377 0-0.192-0.142-0.384-0.548-0.384-0.117 0-0.202 0.007-0.26 0.017v0.743zM21.028 25.548c0 1.162 0.568 1.764 1.815 1.764 1.343 0 2.134-0.423 3.112-0.861v-2.326h-2.93c-1.389 0-1.997 0.246-1.997 1.42v0.002zM83.732 15.862c-1.343 0-2.306 0.418-3.285 0.861v9.794c0.938 0.086 1.475 0.086 2.367 0.086 3.219 0 3.655-1.427 3.655-3.421v-4.686c0-1.467-0.507-2.65-2.737-2.65v0.015zM104.5 15.862c-2.235 0-3.008 1.181-3.008 2.633v5.365c0 1.476 0.773 2.658 3.008 2.658 2.23 0 3.006-1.181 3.006-2.658v-5.365c0-1.467-0.786-2.65-3.016-2.65l0.010 0.017zM51.135 16.527c-3.406-0.566-4.384-0.689-6.021-0.689-2.945 0-3.834 0.622-3.834 3.051v4.577c0 2.424 0.887 3.051 3.834 3.051 1.64 0 2.615-0.123 6.021-0.689v5.178c-2.983 0.652-4.927 0.822-6.569 0.822-7.050 0-9.853-3.593-9.853-8.785v-3.716c0-5.202 2.803-8.802 9.853-8.802 1.642 0 3.586 0.172 6.569 0.824v5.178zM71.689 23.048h-12.043v0.418c0 2.424 0.887 3.051 3.832 3.051 2.648 0 4.258-0.123 7.659-0.689v5.178c-3.277 0.652-4.985 0.822-8.204 0.822-7.045 0-9.833-3.593-9.833-8.785v-4.257c0-4.545 2.078-8.268 9.301-8.268 7.235 0 9.301 3.679 9.301 8.268v4.257l-0.013 0.005zM125.527 15.862c-2.23 0-3.003 1.181-3.003 2.641v5.372c0 1.476 0.773 2.658 3.003 2.658s3.016-1.181 3.016-2.658v-5.374c0-1.469-0.786-2.653-3.016-2.653v0.015zM156.691 31.562h-7.114l-6.022-9.745v9.745h-6.563v-29.227l6.563-1.058v18.813l6.019-9.253h7.097l-6.577 10.089 6.571 10.631 0.025 0.005zM62.382 15.321c-2.23 0-2.737 1.181-2.737 2.658v0.819h5.474v-0.827c0-1.452-0.507-2.643-2.737-2.643v-0.007zM93.037 23.146c0 5.020-1.495 8.687-10.467 8.687-3.234 0-5.135-0.281-8.708-0.812v-28.691l6.564-1.058v10.033c1.419-0.512 3.257-0.77 4.929-0.77 6.564 0 7.654 2.855 7.654 7.439v5.192l0.028-0.020z"></path>
</symbol>
<symbol id="icon-atlassian" viewBox="0 0 150 32">
<path d="M105.295 20.993c-2.168-0.543-2.168-0.566-2.168-1.721 0-0.778 0.079-1.149 1.865-1.149 1.226 0 3.031 0.204 4.192 0.401 0.159 0.023 0.322-0.011 0.452-0.113 0.131-0.091 0.215-0.238 0.233-0.396l0.331-2.587c0.023-0.294-0.163-0.566-0.466-0.634-1.352-0.301-3.218-0.498-4.756-0.498-5.386 0-6.482 1.97-6.482 4.929 0 3.252 0.618 4.347 4.738 5.32 2.714 0.634 2.714 1.104 2.714 1.885 0 1.026-0.093 1.381-1.865 1.381-1.432 0-3.087-0.215-4.542-0.593-0.163-0.039-0.326-0.014-0.466 0.068-0.14 0.088-0.24 0.226-0.27 0.385l-0.445 2.469c-0.054 0.283 0.117 0.56 0.396 0.649 1.59 0.498 3.87 0.838 5.544 0.838 5.209 0 6.272-2.128 6.272-5.298 0-3.509-0.639-4.166-5.283-5.359l0.007 0.023v0.001zM91.788 20.993c-2.168-0.543-2.168-0.566-2.168-1.721 0-0.778 0.079-1.149 1.865-1.149 1.224 0 3.031 0.204 4.192 0.401 0.158 0.023 0.322-0.011 0.452-0.113 0.131-0.091 0.215-0.238 0.233-0.396l0.331-2.587c0.037-0.294-0.158-0.566-0.455-0.634-1.329-0.301-3.194-0.498-4.733-0.498-5.372 0-6.482 1.97-6.482 4.929 0 3.252 0.63 4.347 4.747 5.32 2.714 0.634 2.714 1.104 2.714 1.885 0 1.026-0.093 1.381-1.865 1.381-1.434 0-3.089-0.215-4.547-0.593-0.163-0.039-0.326-0.014-0.466 0.068-0.14 0.088-0.24 0.226-0.27 0.385l-0.466 2.456c-0.047 0.283 0.117 0.562 0.403 0.65 1.585 0.498 3.866 0.838 5.542 0.838 5.2 0 6.272-2.128 6.272-5.298 0-3.509-0.648-4.166-5.293-5.359l-0.007 0.023v0.012zM43.979 9.101c-0.077-0.24-0.303-0.403-0.564-0.403h-5.522c-0.257 0-0.49 0.162-0.567 0.4l-6.968 21.439c-0.054 0.17-0.023 0.362 0.089 0.509s0.289 0.234 0.478 0.234h3.8c0.263 0 0.494-0.17 0.569-0.408l4.8-15.78c0 0 0.128-0.396 0.56-0.396 0.443 0 0.559 0.408 0.559 0.408l2.227 7.482h-2.984c-0.256 0-0.49 0.173-0.559 0.419l-0.863 2.966c-0.047 0.17 0 0.362 0.093 0.498 0.116 0.144 0.303 0.226 0.49 0.226h5.094l1.341 4.18c0.075 0.238 0.303 0.401 0.56 0.401h3.8c0.187 0 0.368-0.090 0.48-0.238 0.117-0.149 0.149-0.34 0.093-0.514l-6.975-21.462-0.023 0.036-0.007 0.002zM116.607 14.64h-3.497c-0.326 0-0.59 0.257-0.59 0.574v15.531c0 0.317 0.266 0.58 0.592 0.58h3.497c0.326 0 0.591-0.257 0.591-0.577v-15.527c0-0.317-0.257-0.569-0.583-0.569l-0.012-0.009 0.001-0.001zM67.015 8.279h-3.497c-0.326 0-0.59 0.257-0.59 0.574v21.893c0 0.317 0.266 0.58 0.592 0.58h3.497c0.326 0 0.59-0.257 0.59-0.577v-21.889c0-0.317-0.257-0.569-0.583-0.569l-0.009-0.009v-0.001zM145.636 14.307c-1.848 0-4.372 0.62-6.505 1.594l-0.257-0.838c-0.069-0.249-0.303-0.413-0.566-0.413h-2.587c-0.326 0-0.595 0.257-0.595 0.574v15.531c0 0.317 0.256 0.577 0.582 0.577h3.498c0.326 0 0.594-0.256 0.594-0.577v-10.754c1.26-0.623 3.031-1.268 4.084-1.268 0.787 0 1.079 0.288 1.079 1.053v10.958c0 0.322 0.269 0.577 0.595 0.577h3.497c0.326 0 0.59-0.256 0.59-0.577v-11.402c0-3.334-1.353-5.026-4.013-5.026h-0.003l0.005-0.008zM13.447 23.54c-0.093-0.090-0.226-0.187-0.455-0.187-0.291 0-0.462 0.195-0.527 0.29-1.632 2.422-2.471 4.709-2.588 7.007-0.004 0.17 0.062 0.34 0.181 0.464 0.117 0.136 0.291 0.204 0.466 0.204h3.875c0.338 0 0.618-0.249 0.641-0.566 0.093-1.109 0.443-2.219 1.096-3.373 0.221-0.408 0.047-0.781-0.082-0.943-0.641-0.815-1.426-1.675-2.591-2.859l-0.005-0.023-0.012-0.014zM78.354 25.193v2c-0.571 0.317-1.62 0.747-2.891 0.747-1.084 0-1.422-0.317-1.422-1.381 0-1.019 0.21-1.34 1.492-1.34h2.821v-0.026zM128.040 25.193v2c-0.582 0.317-1.632 0.747-2.891 0.747-1.084 0-1.422-0.317-1.422-1.381 0-1.019 0.21-1.34 1.492-1.34h2.821v-0.026zM60.553 28.006c-0.023-0.163-0.117-0.306-0.257-0.396s-0.305-0.118-0.469-0.079c-0.63 0.149-1.212 0.231-1.679 0.231-0.863 0-1.259-0.362-1.259-1.177v-8.23h3.392c0.326 0 0.592-0.26 0.592-0.577v-2.57c0-0.317-0.268-0.577-0.595-0.577h-3.381v-3.95c0-0.17-0.079-0.325-0.21-0.436-0.128-0.11-0.303-0.158-0.466-0.136l-3.497 0.475c-0.294 0.037-0.513 0.28-0.513 0.566v3.486h-1.908c-0.326 0-0.592 0.257-0.592 0.574v2.581c0 0.317 0.28 0.58 0.606 0.58h1.902v8.75c0 3.008 1.625 4.528 4.833 4.528 0.909 0 2.462-0.204 3.474-0.543 0.268-0.091 0.434-0.354 0.389-0.634l-0.379-2.456 0.012-0.017 0.002 0.007zM76.010 14.315c-1.772 0-3.926 0.272-5.491 0.69-0.303 0.079-0.49 0.357-0.443 0.645l0.403 2.468c0.023 0.151 0.117 0.286 0.245 0.377 0.131 0.091 0.294 0.113 0.452 0.091 1.453-0.272 2.954-0.43 4.225-0.43 2.518 0 2.924 0.521 2.924 2.173v1.449h-3.731c-3.577 0-5.106 1.426-5.106 4.8 0 3.215 1.679 5.049 4.593 5.049 1.695 0 3.388-0.453 4.81-1.291l0.152 0.528c0.070 0.249 0.303 0.419 0.571 0.419h2.84c0.326 0 0.59-0.26 0.59-0.577v-10.324c0-4.437-1.9-6.090-7.018-6.090l-0.021 0.011 0.005 0.013zM125.688 14.315c-1.772 0-3.917 0.272-5.479 0.69-0.291 0.079-0.478 0.357-0.426 0.645l0.408 2.468c0.023 0.151 0.117 0.286 0.245 0.377 0.133 0.091 0.296 0.113 0.455 0.091 1.445-0.272 2.938-0.43 4.22-0.43 2.518 0 2.915 0.521 2.915 2.173v1.449h-3.731c-3.591 0-5.12 1.426-5.12 4.8 0 3.215 1.675 5.049 4.593 5.049 1.694 0 3.381-0.453 4.803-1.291l0.151 0.528c0.070 0.249 0.303 0.419 0.571 0.419h2.822c0.326 0 0.594-0.26 0.594-0.577v-10.324c0-4.437-1.901-6.090-7.018-6.090l0.006 0.011-0.009 0.013zM29.169 8.383c-0.117-0.085-0.251-0.128-0.388-0.128-0.093 0-0.163 0.014-0.233 0.041-1.399 0.514-2.798 0.906-4.080 1.193-0.256 0.068-0.485 0.249-0.56 0.475-0.933 2.49-3.334 4.867-5.829 7.335-0.093 0.091-0.233 0.226-0.466 0.226s-0.373-0.113-0.466-0.211c-2.518-2.479-4.896-4.834-5.829-7.324-0.093-0.226-0.303-0.408-0.56-0.475-1.282-0.294-2.705-0.691-4.080-1.2-0.070-0.023-0.159-0.034-0.233-0.034-0.14 0-0.275 0.045-0.389 0.128-0.177 0.125-0.268 0.34-0.247 0.543 0.21 2.067 1.061 4.087 2.576 6.203 1.434 1.992 3.287 3.837 5.094 5.619 3.311 3.283 6.447 6.384 6.724 9.984 0.023 0.321 0.303 0.573 0.634 0.573h3.894c0.175 0 0.345-0.068 0.466-0.192s0.186-0.29 0.175-0.46c-0.124-2.403-1.056-4.811-2.851-7.361-0.373-0.532-0.769-1.053-1.193-1.562-0.17-0.204-0.098-0.464 0.033-0.591l0.396-0.389c1.804-1.777 3.661-3.622 5.095-5.615 1.516-2.111 2.355-4.12 2.57-6.186 0.023-0.209-0.075-0.43-0.247-0.558l0.012-0.017-0.017-0.018zM17.628 10.239c1.22 0 1.929-0.076 2.177-0.076 0.28 0 0.583 0.226 0.583 0.566 0 0.091-0.023 0.158-0.047 0.226-0.163 0.417-0.909 1.929-2.285 3.226-0.163 0.145-0.326 0.172-0.443 0.172s-0.303-0.027-0.459-0.172c-1.376-1.297-2.112-2.807-2.273-3.231-0.023-0.068-0.047-0.136-0.047-0.238 0-0.328 0.287-0.577 0.588-0.577 0.249 0 0.956 0.068 2.178 0.068h0.005l0.023 0.023 0.001 0.012zM116.605 8.284h-3.488c-0.327 0-0.592 0.249-0.592 0.566v2.988c0 0.317 0.266 0.575 0.592 0.575h3.497c0.326 0 0.591-0.249 0.591-0.566v-3.012c0-0.317-0.265-0.572-0.591-0.572l-0.009 0.027v-0.007zM34.66 1.155c-0.155-0.204-0.396-0.317-0.653-0.317-0.132 0-0.262 0.027-0.373 0.091-4.78 2.536-10.314 3.878-16.012 3.88-5.696 0-11.231-1.345-16.006-3.883-0.117-0.068-0.245-0.091-0.373-0.091-0.256 0-0.501 0.113-0.653 0.317-0.226 0.272-0.233 0.77 0.152 1.064 2.39 1.721 5.027 3.079 7.834 4.007 2.914 0.951 5.955 1.449 9.046 1.449 3.094 0 6.137-0.498 9.047-1.449 2.809-0.928 5.447-2.287 7.841-4.007 0.385-0.294 0.373-0.792 0.152-1.087v0.025h-0.001z"></path>
</symbol>
<symbol id="icon-audi" viewBox="0 0 129 32">
<path d="M116.792 19.461c0-2.542-1.070-5.484-4.399-9.586l-8.030-9.876h-11.179l6.365 6.929c1.072 1.155 2.438 2.194 2.438 2.194-1.548-0.866-3.507-1.212-5.055-1.212-3.686 0-7.433 0.751-10.763 2.541-3.568 1.905-5.949 5.081-5.949 9.298 0 3.233 1.489 5.717 3.392 7.621 4.281 4.16 12.073 4.563 14.928 4.563 4.223 0 10.826-0.925 14.57-4.216 2.202-1.963 3.689-4.677 3.689-8.256l-0.004-0.001zM129.103 8.546h-9.694v22.637h9.694v-22.637zM49.411 31.183l-21.411-31.183h-12.013l3.32 3.811-18.841 27.373h10.824l3.229-5.139h20.415l3.296 5.137 11.181 0.002zM77.779 21.713v-13.166h-9.395v10.106c0 2.889-0.121 3.695-0.298 4.445-0.653 2.079-2.915 3.002-5.236 3.002-3.211 0-4.698-1.213-5.291-3.119-0.181-0.634-0.238-1.325-0.297-2.020-0.060-0.749 0-1.558 0-2.425v-9.989h-9.515v13.223c0 2.947 1.010 5.14 2.675 6.643 2.854 2.713 7.672 3.523 12.133 3.523 5.413 0 9.578-0.751 12.55-3.581 1.548-1.444 2.677-3.349 2.677-6.641h-0.003zM107.516 19.749c0 2.366-1.606 4.157-3.628 5.139-1.664 0.867-3.628 1.097-5.353 1.097s-3.747-0.345-5.412-1.154c-2.022-0.981-3.568-2.887-3.568-4.967 0-2.482 1.962-4.445 4.281-5.428 1.427-0.636 3.153-0.867 4.519-0.867 1.309 0 3.213 0.173 4.698 0.751 2.677 1.098 4.462 3.175 4.462 5.429zM31.159 19.959h-12.939l6.448-10.33 6.491 10.33z"></path>
</symbol>
<symbol id="icon-play" viewBox="0 0 7 8">
<path d="M6 2.73354C6.66667 3.11844 6.66667 4.08069 6 4.46559L1.5 7.06367C0.833333 7.44857 0 6.96744 0 6.19764V1.00149C0 0.231691 0.833333 -0.249434 1.5 0.135467L6 2.73354Z" />
</symbol>
<symbol id="icon-about-4" viewBox="0 0 35 32">
<path fill="none" stroke="#4074f8" style="stroke: var(--color1, #4074f8)" stroke-linejoin="miter" stroke-linecap="butt" stroke-miterlimit="4" stroke-width="4.2105" d="M3.368 20.156v9.318h29.060v-9.318M11.376 8.421l6.737-5.053M24.85 8.421l-6.737-5.053M18.113 3.368v17.684"></path>
</symbol>
<symbol id="icon-about-3" viewBox="0 0 35 32">
<path fill="none" stroke="#4074f8" style="stroke: var(--color1, #4074f8)" stroke-linejoin="miter" stroke-linecap="butt" stroke-miterlimit="4" stroke-width="4" d="M3.2 3.2v18.4h3.65l1.95 5.6 5.6-5.6h17.207v-18.4h-28.407z"></path>
</symbol>
<symbol id="icon-about-2" viewBox="0 0 50 32">
<path fill="none" stroke="#4074f8" style="stroke: var(--color1, #4074f8)" stroke-linejoin="miter" stroke-linecap="butt" stroke-miterlimit="4" stroke-width="4.4444" d="M35.119 28.444h-31.563v-24.889h17.934l2.869 5.62h10.76v3.211M35.119 28.444l9.325-16.057h-9.325M35.119 28.444v-16.057"></path>
</symbol>
<symbol id="icon-about-1" viewBox="0 0 27 32">
<path fill="none" stroke="#4074f8" style="stroke: var(--color1, #4074f8)" stroke-linejoin="miter" stroke-linecap="butt" stroke-miterlimit="4" stroke-width="3.8095" d="M3.048 11.997v16.956h6.737l3.93-3.048 3.93 3.048h6.737v-16.956l-10.667-8.949-10.667 8.949z"></path>
</symbol>
<symbol id="stats-l" viewBox="0 0 67 68" fill="none" >
<path d="M2 33.625C2 16.159 16.2412 2 33.8085 2C37.0463 2 40.1712 2.48098 43.1147 3.375" stroke="white" stroke-width="4" stroke-linecap="round" stroke-linejoin="round"/>
<path fill-rule="evenodd" clip-rule="evenodd" d="M26.9628 40.4307C30.7436 44.1895 36.873 44.1895 40.6537 40.4307C44.4343 36.6719 60.0847 10.2499 58.7018 8.87494C57.3188 7.49994 30.7436 23.0602 26.9628 26.819C23.1823 30.5778 23.1823 36.6719 26.9628 40.4307ZM33.808 36.3751C35.3356 36.3751 36.5742 35.1439 36.5742 33.6251C36.5742 32.1063 35.3356 30.8751 33.808 30.8751C32.2805 30.8751 31.0422 32.1063 31.0422 33.6251C31.0422 35.1439 32.2805 36.3751 33.808 36.3751Z" fill="white"/>
<ellipse cx="6.14901" cy="50.125" rx="2.76596" ry="2.75" fill="white"/>
<ellipse cx="17.2127" cy="61.125" rx="2.76596" ry="2.75" fill="white"/>
<ellipse cx="33.8084" cy="65.25" rx="2.76596" ry="2.75" fill="white"/>
<ellipse cx="50.4041" cy="61.125" rx="2.76596" ry="2.75" fill="white"/>
<ellipse cx="60.085" cy="50.125" rx="2.76596" ry="2.75" fill="white"/>
<ellipse cx="64.234" cy="33.625" rx="2.76596" ry="2.75" fill="white"/>
</symbol>
<symbol id="stats-r" viewBox="0 0 75 66" fill="none" >
<ellipse cx="28.6252" cy="17.5" rx="15.6369" ry="15.5" stroke="#5E80FF" stroke-width="4" stroke-linecap="round" stroke-linejoin="round"/>
<path d="M55.2501 64.0001C55.2501 49.6556 43.3296 38.0271 28.625 38.0271C13.9204 38.0271 2 49.6556 2 64.0001" stroke="#5E80FF" stroke-width="4" stroke-linecap="round" stroke-linejoin="round"/>
<ellipse cx="62.0117" cy="20.2229" rx="6.45334" ry="6.49324" stroke="#5E80FF" stroke-width="3" stroke-linecap="round" stroke-linejoin="round"/>
<path d="M72.9999 39.7027C72.9999 33.6935 68.0804 28.8221 62.0118 28.8221C55.9432 28.8221 51.0237 33.6935 51.0237 39.7027" stroke="#5E80FF" stroke-width="3" stroke-linecap="round" stroke-linejoin="round"/>
</symbol>

<symbol id="cross-icon" viewBox="0 0 8 8">
<path d="M8 0.805714L7.19429 0L4 3.19429L0.805714 0L0 0.805714L3.19429 4L0 7.19429L0.805714 8L4 4.80571L7.19429 8L8 7.19429L4.80571 4L8 0.805714Z"/>
</symbol>

</defs>
</svg>
