<svg aria-hidden="true" style="position: absolute; width: 0; height: 0; overflow: hidden;" version="1.1" xmlns="http://www.w3.org/2000/svg" xmlns:xlink="http://www.w3.org/1999/xlink">
<defs>
<symbol id="icon-M-social" viewBox="0 0 39 32">
<path d="M38.857 4.815h-1.492c-0.554 0-1.338 0.787-1.338 1.29v18.256c0 0.504 0.784 1.192 1.338 1.192h1.492v4.334h-13.523v-4.334h2.83v-19.191h-0.139l-6.609 23.524h-5.117l-6.524-23.524h-0.165v19.191h2.83v4.334h-11.321v-4.334h1.45c0.597 0 1.381-0.687 1.381-1.192v-18.256c0-0.504-0.784-1.29-1.381-1.29h-1.45v-4.333h14.157l4.648 17.024h0.128l4.691-17.024h14.114v4.333z"></path>
</symbol>
<symbol id="icon-twitter" viewBox="0 0 41 32">
<path d="M38.932 4.207c-1.389 0.634-2.88 1.060-4.446 1.254 1.598-0.985 2.826-2.544 3.403-4.401-1.496 0.912-3.153 1.574-4.917 1.93-1.412-1.545-3.424-2.508-5.651-2.508-4.275 0-7.742 3.562-7.742 7.953 0 0.624 0.068 1.231 0.2 1.813-6.435-0.333-12.141-3.501-15.959-8.311-0.666 1.175-1.048 2.54-1.048 3.998 0 2.759 1.367 5.193 3.444 6.621-1.268-0.042-2.462-0.4-3.506-0.996v0.1c0 3.856 2.671 7.069 6.209 7.8-0.649 0.182-1.333 0.279-2.036 0.279-0.499 0-0.985-0.048-1.456-0.142 0.985 3.161 3.845 5.46 7.232 5.524-2.65 2.132-5.988 3.404-9.617 3.404-0.625 0-1.24-0.036-1.846-0.111 3.426 2.257 7.496 3.574 11.868 3.574 14.24 0 22.028-12.121 22.028-22.63 0-0.345-0.008-0.688-0.022-1.030 1.513-1.121 2.826-2.523 3.864-4.119z"></path>
</symbol>
<symbol id="icon-telegram" viewBox="0 0 37 32">
<path d="M14.325 29.596c-1.078 0-0.895-0.389-1.266-1.371l-3.169-9.977 24.395-13.843z"></path>
<path d="M14.326 29.596c0.832 0 1.199-0.364 1.663-0.796l4.435-4.125-5.533-3.191z"></path>
<path d="M14.891 21.484l13.406 9.474c1.53 0.807 2.634 0.389 3.015-1.359l5.457-24.597c0.559-2.143-0.854-3.114-2.317-2.479l-32.043 11.818c-2.187 0.839-2.175 2.006-0.399 2.526l8.223 2.455 19.037-11.488c0.899-0.521 1.724-0.241 1.047 0.334z"></path>
</symbol>
<symbol id="icon-facebook" viewBox="0 0 17 32">
<path d="M10.647 32v-14.597h4.836l0.724-5.689h-5.56v-3.632c0-1.647 0.451-2.769 2.783-2.769l2.973-0.001v-5.088c-0.514-0.069-2.279-0.224-4.332-0.224-4.287 0-7.221 2.651-7.221 7.519v4.195h-4.848v5.689h4.848v14.597h5.798z"></path>
</symbol>
</defs>
</svg>
