<svg aria-hidden="true" style="position: absolute; width: 0; height: 0; overflow: hidden;" version="1.1" xmlns="http://www.w3.org/2000/svg" xmlns:xlink="http://www.w3.org/1999/xlink">
<defs>

<symbol id="icon-burger" viewBox="0 0 34 19" >
<rect width="33.5294" height="3.35294" rx="1" />
<rect y="7.82353" width="33.5294" height="3.35294" rx="1" />
<rect y="15.6471" width="23.7159" height="3.35294" rx="1" />
</symbol>

<symbol id="icon-close" viewBox="0 0 34 34">
<path d="M18.9975 17.0001L25.0892 10.9226C25.356 10.6558 25.5058 10.294 25.5058 9.91673C25.5058 9.53947 25.356 9.17766 25.0892 8.91089C24.8224 8.64413 24.4606 8.49426 24.0834 8.49426C23.7061 8.49426 23.3443 8.64413 23.0775 8.91089L17 15.0026L10.9225 8.91089C10.6558 8.64413 10.294 8.49426 9.9167 8.49426C9.53944 8.49426 9.17763 8.64413 8.91087 8.91089C8.64411 9.17766 8.49424 9.53947 8.49424 9.91673C8.49424 10.294 8.64411 10.6558 8.91087 10.9226L15.0025 17.0001L8.91087 23.0776C8.77809 23.2093 8.6727 23.3659 8.60077 23.5386C8.52885 23.7112 8.49182 23.8964 8.49182 24.0834C8.49182 24.2704 8.52885 24.4556 8.60077 24.6282C8.6727 24.8008 8.77809 24.9575 8.91087 25.0892C9.04257 25.222 9.19925 25.3274 9.37189 25.3993C9.54452 25.4712 9.72969 25.5083 9.9167 25.5083C10.1037 25.5083 10.2889 25.4712 10.4615 25.3993C10.6342 25.3274 10.7908 25.222 10.9225 25.0892L17 18.9976L23.0775 25.0892C23.2092 25.222 23.3659 25.3274 23.5386 25.3993C23.7112 25.4712 23.8964 25.5083 24.0834 25.5083C24.2704 25.5083 24.4556 25.4712 24.6282 25.3993C24.8008 25.3274 24.9575 25.222 25.0892 25.0892C25.222 24.9575 25.3274 24.8008 25.3993 24.6282C25.4712 24.4556 25.5082 24.2704 25.5082 24.0834C25.5082 23.8964 25.4712 23.7112 25.3993 23.5386C25.3274 23.3659 25.222 23.2093 25.0892 23.0776L18.9975 17.0001Z" />
</symbol>

</defs>
</svg>
